<svg xmlns="http://www.w3.org/2000/svg" viewBox="0 0 24 24"><path d="M12 0C5.37 0 0 5.37 0 12c0 5.3 3.44 9.8 8.2 11.38.6.11.82-.26.82-.58 0-.29-.01-1.06-.02-2.08-3.34.73-4.04-1.61-4.04-1.61-.55-1.39-1.33-1.76-1.33-1.76-1.09-.75.08-.74.08-.74 1.2.08 1.84 1.24 1.84 1.24 1.07 1.84 2.81 1.31 3.49 1 .11-.77.42-1.31.76-1.61-2.67-.3-5.47-1.34-5.47-5.94 0-1.31.47-2.39 1.24-3.23-.12-.3-.54-1.52.12-3.17 0 0 1.01-.32 3.3 1.23a11.47 11.47 0 0 1 6 0c2.29-1.55 3.3-1.23 3.3-1.23.66 1.65.24 2.87.12 3.17.77.84 1.24 1.92 1.24 3.23 0 4.61-2.8 5.63-5.48 5.93.43.37.81 1.1.81 2.22 0 1.61-.01 2.91-.01 3.31 0 .32.22.69.83.57C20.57 21.79 24 17.3 24 12 24 5.37 18.63 0 12 0z"/></svg>